<svg xmlns:dc="http://purl.org/dc/elements/1.1/" xmlns:cc="http://creativecommons.org/ns#" xmlns:rdf="http://www.w3.org/1999/02/22-rdf-syntax-ns#" xmlns:svg="http://www.w3.org/2000/svg" xmlns="http://www.w3.org/2000/svg" xmlns:xlink="http://www.w3.org/1999/xlink" id="svg26122" viewBox="0 0 1024 768" height="768px" width="1024px" version="1.1">
    <metadata id="metadata26128">
        <rdf:rdf>
            <cc:work rdf:about="">
                <dc:format>
                    image/svg+xml
                </dc:format>
                <dc:type rdf:resource="http://purl.org/dc/dcmitype/StillImage"/>
            </cc:work>
        </rdf:rdf>
    </metadata>
    <defs id="defs26126"/>
    <linearGradient spreadMethod="pad" y2="30%" x2="-10%" y1="120%" x1="30%" id="3d_gradient2-logo-68e33d16-16fd-4986-9b20-e423eca50cf7">
        <stop id="stop26103" stop-opacity="1" stop-color="#ffffff" offset="0%" data-darkreader-inline-stopcolor="" style="--darkreader-inline-stopcolor: #181a1b;"/>
        <stop id="stop26105" stop-opacity="1" stop-color="#000000" offset="100%" data-darkreader-inline-stopcolor="" style="--darkreader-inline-stopcolor: #000000;"/>
    </linearGradient>
    <linearGradient gradientTransform="rotate(-30)" spreadMethod="pad" y2="30%" x2="-10%" y1="120%" x1="30%" id="3d_gradient3-logo-68e33d16-16fd-4986-9b20-e423eca50cf7">
        <stop id="stop26108" stop-opacity="1" stop-color="#ffffff" offset="0%" data-darkreader-inline-stopcolor="" style="--darkreader-inline-stopcolor: #181a1b;"/>
        <stop id="stop26110" stop-opacity="1" stop-color="#cccccc" offset="50%" data-darkreader-inline-stopcolor="" style="--darkreader-inline-stopcolor: #35393b;"/>
        <stop id="stop26112" stop-opacity="1" stop-color="#000000" offset="100%" data-darkreader-inline-stopcolor="" style="--darkreader-inline-stopcolor: #000000;"/>
    </linearGradient>
    <g id="logo-group">
        <image xlink:href="" id="container" x="272" y="144" width="480" height="480" style="display: none;" transform="translate(0 0)"/>
        <g id="logo-center" transform="translate(-1.1368683772161603e-13 0)">
            <image xlink:href="" id="icon_container" style="display: none;" x="0" y="0"/>
            <g id="slogan" style="font-style:normal;font-weight:400;font-size:32px;line-height:1;font-family:'Maven Pro';font-variant-ligatures:none;text-align:center;text-anchor:middle" transform="translate(0 0)"/>
            <g id="title" style="font-style:normal;font-weight:800;font-size:72px;line-height:1;font-family:'Montserrat ExtraBold Alt1';font-variant-ligatures:none;text-align:center;text-anchor:middle" transform="translate(0 0)">
                <path id="path26131" style="font-style: normal; font-weight: 800; font-size: 72px; line-height: 1; font-family: &quot;Montserrat ExtraBold Alt1&quot;; font-variant-ligatures: none; text-align: center; text-anchor: middle; --darkreader-inline-fill: #184a95; --darkreader-inline-stroke: #59a1e4;" d="m 357.37662,-41.616 c -1.87199,-2.808 -4.464,-4.968 -7.776,-6.48 -3.38399,-1.512 -7.344,-2.304 -11.88,-2.304 h -23.03999 v 11.232 h 22.17599 c 2.88,0 5.112,0.648 6.62401,1.944 1.43999,1.296 2.23199,3.168 2.23199,5.472 0,2.376 -0.792,4.176 -2.23199,5.472 -1.51201,1.296 -3.74401,1.872 -6.62401,1.872 H 314.68063 V 0 h 14.25599 v -13.176 h 8.784 c 4.536,0 8.49601,-0.72 11.88,-2.232 3.312,-1.512 5.90401,-3.672 7.776,-6.48 1.8,-2.736 2.736,-6.048 2.736,-9.864 0,-3.744 -0.936,-7.056 -2.736,-9.864 z" stroke-width="0" stroke-linejoin="miter" stroke-miterlimit="2" fill="#508be3" stroke="#508be3" transform="translate(0 314.092) translate(173.8886750000001 38.408) scale(1.25) translate(-314.68063 50.4)" data-darkreader-inline-fill="" data-darkreader-inline-stroke=""/>
                <path id="path26133" style="font-style: normal; font-weight: 800; font-size: 72px; line-height: 1; font-family: &quot;Montserrat ExtraBold Alt1&quot;; font-variant-ligatures: none; text-align: center; text-anchor: middle; --darkreader-inline-fill: #184a95; --darkreader-inline-stroke: #59a1e4;" d="M 366.99313,-50.4 V 0 h 14.25599 v -50.4 z" stroke-width="0" stroke-linejoin="miter" stroke-miterlimit="2" fill="#508be3" stroke="#508be3" transform="translate(0 314.092) translate(264.2793000000001 38.408) scale(1.25) translate(-366.99313 50.4)" data-darkreader-inline-fill="" data-darkreader-inline-stroke=""/>
                <path id="path26135" style="font-style: normal; font-weight: 800; font-size: 72px; line-height: 1; font-family: &quot;Montserrat ExtraBold Alt1&quot;; font-variant-ligatures: none; text-align: center; text-anchor: middle; --darkreader-inline-fill: #184a95; --darkreader-inline-stroke: #59a1e4;" d="m 402.33387,-2.304 c 4.17601,2.232 8.92801,3.312 14.256,3.312 4.608,0 8.712,-0.792 12.45601,-2.448 3.67199,-1.584 6.76799,-3.96 9.21599,-7.056 l -9.07199,-8.208 c -3.312,3.96 -7.27201,5.904 -11.88001,5.904 -2.736,0 -5.184,-0.576 -7.344,-1.8 -2.15999,-1.152 -3.816,-2.88 -4.96799,-5.04 -1.15201,-2.16 -1.728,-4.68 -1.728,-7.56 0,-2.808 0.57599,-5.328 1.728,-7.488 1.15199,-2.16 2.808,-3.888 4.96799,-5.112 2.16,-1.152 4.608,-1.8 7.344,-1.8 4.608,0 8.56801,2.016 11.88001,5.904 l 9.07199,-8.208 c -2.448,-3.024 -5.544,-5.4 -9.21599,-7.056 -3.74401,-1.584 -7.84801,-2.448 -12.45601,-2.448 -5.32799,0 -10.07999,1.152 -14.256,3.384 -4.176,2.232 -7.488,5.328 -9.864,9.288 -2.44799,4.032 -3.6,8.496 -3.6,13.536 0,5.04 1.15201,9.576 3.6,13.536 2.376,4.032 5.688,7.128 9.864,9.36 z" stroke-width="0" stroke-linejoin="miter" stroke-miterlimit="2" fill="#508be3" stroke="#508be3" transform="translate(0 314.092) translate(316.6252250000001 37.147999999999996) scale(1.25) translate(-388.86987 51.408)" data-darkreader-inline-fill="" data-darkreader-inline-stroke=""/>
                <path id="path26137" style="font-style: normal; font-weight: 800; font-size: 72px; line-height: 1; font-family: &quot;Montserrat ExtraBold Alt1&quot;; font-variant-ligatures: none; text-align: center; text-anchor: middle; --darkreader-inline-fill: #184a95; --darkreader-inline-stroke: #59a1e4;" d="m 454.50912,-2.376 c 4.248,2.304 9.072,3.384 14.40001,3.384 5.32799,0 10.07999,-1.08 14.32799,-3.384 4.248,-2.232 7.56,-5.328 10.00801,-9.36 2.44799,-3.96 3.67199,-8.424 3.67199,-13.464 0,-4.968 -1.224,-9.432 -3.67199,-13.464 -2.44801,-3.96 -5.76001,-7.056 -10.00801,-9.36 -4.248,-2.232 -9,-3.384 -14.32799,-3.384 -5.32801,0 -10.15201,1.152 -14.40001,3.384 -4.248,2.304 -7.56,5.4 -10.008,9.36 -2.44799,4.032 -3.6,8.496 -3.6,13.464 0,5.04 1.15201,9.504 3.6,13.464 2.448,4.032 5.76,7.128 10.008,9.36 z m 21.312,-10.224 c -2.088,1.224 -4.392,1.8 -6.91199,1.8 -2.59201,0 -4.89601,-0.576 -6.91201,-1.8 -2.08799,-1.152 -3.744,-2.88 -4.89599,-5.04 -1.22401,-2.16 -1.8,-4.68 -1.8,-7.56 0,-2.808 0.57599,-5.328 1.8,-7.488 1.15199,-2.16 2.808,-3.888 4.89599,-5.112 2.016,-1.152 4.32,-1.8 6.91201,-1.8 2.51999,0 4.82399,0.648 6.91199,1.8 2.01601,1.224 3.67201,2.952 4.896,5.112 1.152,2.16 1.80001,4.68 1.80001,7.488 0,2.88 -0.64801,5.4 -1.80001,7.56 -1.22399,2.16 -2.87999,3.888 -4.896,5.04 z" stroke-width="0" stroke-linejoin="miter" stroke-miterlimit="2" fill="#508be3" stroke="#508be3" transform="translate(0 314.092) translate(406.6642875000001 37.147999999999996) scale(1.25) translate(-440.90112 51.408)" data-darkreader-inline-fill="" data-darkreader-inline-stroke=""/>
                <path id="path26139" style="font-style: normal; font-weight: 800; font-size: 72px; line-height: 1; font-family: &quot;Montserrat ExtraBold Alt1&quot;; font-variant-ligatures: none; text-align: center; text-anchor: middle; --darkreader-inline-fill: #184a95; --darkreader-inline-stroke: #59a1e4;" d="m 552.83975,-38.52 c -2.376,-3.744 -5.688,-6.696 -9.936,-8.784 -4.32,-2.016 -9.216,-3.096 -14.688,-3.096 h -23.832 v 11.376 h 23.256 c 4.32,0 7.776,1.224 10.368,3.672 2.592,2.52 3.96,5.904 3.96,10.152 0,4.32 -1.368,7.704 -3.96,10.152 -2.592,2.448 -6.048,3.672 -10.368,3.672 h -9 v -13.392 h -14.256 V 0 h 23.832 c 5.472,0 10.368,-1.008 14.688,-3.096 4.248,-2.016 7.56,-4.968 9.936,-8.784 2.304,-3.744 3.528,-8.208 3.528,-13.32 0,-5.04 -1.224,-9.504 -3.528,-13.32 z" stroke-width="0" stroke-linejoin="miter" stroke-miterlimit="2" fill="#508be3" stroke="#508be3" transform="translate(0 314.092) translate(511.0175750000001 38.408) scale(1.25) translate(-504.38375 50.4)" data-darkreader-inline-fill="" data-darkreader-inline-stroke=""/>
                <path id="path26141" style="font-style: normal; font-weight: 800; font-size: 72px; line-height: 1; font-family: &quot;Montserrat ExtraBold Alt1&quot;; font-variant-ligatures: none; text-align: center; text-anchor: middle; --darkreader-inline-fill: #184a95; --darkreader-inline-stroke: #59a1e4;" d="m 603.82812,-50.4 h -39.96 v 11.016 h 39.96 z m 0,19.512 h -39.96 v 10.656 h 39.96 z m -39.96,19.872 V 0 h 39.96 v -11.016 z" stroke-width="0" stroke-linejoin="miter" stroke-miterlimit="2" fill="#508be3" stroke="#508be3" transform="translate(0 314.092) translate(610.3730375 38.408) scale(1.25) translate(-563.86812 50.4)" data-darkreader-inline-fill="" data-darkreader-inline-stroke=""/>
                <path id="path26143" style="font-style: normal; font-weight: 800; font-size: 72px; line-height: 1; font-family: &quot;Montserrat ExtraBold Alt1&quot;; font-variant-ligatures: none; text-align: center; text-anchor: middle; --darkreader-inline-fill: #184a95; --darkreader-inline-stroke: #59a1e4;" d="m 622.9745,-2.304 c 4.176,2.232 8.928,3.312 14.256,3.312 4.608,0 8.712,-0.792 12.456,-2.448 3.672,-1.584 6.768,-3.96 9.216,-7.056 l -9.072,-8.208 c -3.312,3.96 -7.272,5.904 -11.88,5.904 -2.736,0 -5.184,-0.576 -7.344,-1.8 -2.16,-1.152 -3.816,-2.88 -4.968,-5.04 -1.152,-2.16 -1.728,-4.68 -1.728,-7.56 0,-2.808 0.576,-5.328 1.728,-7.488 1.152,-2.16 2.808,-3.888 4.968,-5.112 2.16,-1.152 4.608,-1.8 7.344,-1.8 4.608,0 8.568,2.016 11.88,5.904 l 9.072,-8.208 c -2.448,-3.024 -5.544,-5.4 -9.216,-7.056 -3.744,-1.584 -7.848,-2.448 -12.456,-2.448 -5.328,0 -10.08,1.152 -14.256,3.384 -4.176,2.232 -7.488,5.328 -9.864,9.288 -2.448,4.032 -3.6,8.496 -3.6,13.536 0,5.04 1.152,9.576 3.6,13.536 2.376,4.032 5.688,7.128 9.864,9.36 z" stroke-width="0" stroke-linejoin="miter" stroke-miterlimit="2" fill="#508be3" stroke="#508be3" transform="translate(0 314.092) translate(692.4260125000001 37.147999999999996) scale(1.25) translate(-609.5105 51.408)" data-darkreader-inline-fill="" data-darkreader-inline-stroke=""/>
                <path id="path26145" style="font-style: normal; font-weight: 800; font-size: 72px; line-height: 1; font-family: &quot;Montserrat ExtraBold Alt1&quot;; font-variant-ligatures: none; text-align: center; text-anchor: middle; --darkreader-inline-fill: #184a95; --darkreader-inline-stroke: #59a1e4;" d="m 679.37075,-50.4 h -14.112 v 21.456 l 14.112,-15.336 z m 14.616,22.32 20.592,-22.32 h -15.696 l -19.512,20.952 -14.112,15.192 V 0 h 14.112 v -12.6 l 5.328,-5.688 14.4,18.288 h 16.56 z" stroke-width="0" stroke-linejoin="miter" stroke-miterlimit="2" fill="#508be3" stroke="#508be3" transform="translate(0 314.092) translate(787.111325 38.408) scale(1.25) translate(-665.25875 50.4)" data-darkreader-inline-fill="" data-darkreader-inline-stroke=""/>
            </g>
            <image xlink:href="" id="icon" style="display: none;" x="0" y="0"/>
        </g>
    </g>
</svg>